<?xml version="1.0" encoding="utf-8"?>
<!-- Generator: Adobe Illustrator 24.1.2, SVG Export Plug-In . SVG Version: 6.00 Build 0)  -->
<svg version="1.1" id="Слой_1" xmlns="http://www.w3.org/2000/svg" xmlns:xlink="http://www.w3.org/1999/xlink" x="0px" y="0px"
	 viewBox="0 0 80 50" style="enable-background:new 0 0 80 50;" xml:space="preserve">
<style type="text/css">
	.st0{fill:#1861AC;}
	.st1{fill:#FBB80F;}
</style>
<path class="st0" d="M-0.01,0.01v49.97C0.03,49.99,0.06,50,0.08,50h79.77c0.04,0,0.08-0.01,0.12-0.01c0,0,0.01-0.01,0.02-0.01
	c0-0.01,0.01-0.01,0.02-0.03V0.01H-0.01z M79.17,49.22H0.83V0.81h78.34V49.22z"/>
<path class="st0" d="M3.08,13.81c0-3.45,0-6.89,0-10.34c24.45,0,48.89,0,73.34,0c0,3.45,0,6.89,0,10.34
	C51.97,13.81,27.53,13.81,3.08,13.81z"/>
<path class="st1" d="M3.08,46.56c0-3.44,0-6.87,0-10.3c0.01-0.01,0.01-0.02,0.02-0.03c0.01,0,0.01-0.01,0.02-0.01
	c0.03-0.01,0.06-0.01,0.09-0.01c24.37,0,48.73,0,73.1,0c0.03,0,0.06,0.01,0.11,0.02c0,3.44,0,6.88,0,10.33
	C51.97,46.56,27.53,46.56,3.08,46.56z"/>
<path class="st0" d="M65.75,32.3c-0.07-0.92-0.14-1.85-0.21-2.78l-0.21-2.76c-0.08-1.12-0.17-2.24-0.26-3.36l-0.21-2.76
	c-0.09-1.2-0.18-2.4-0.27-3.6c-0.01-0.08-0.02-0.15-0.03-0.25h-0.25c-1.98,0-3.97,0-5.96-0.01c-0.17,0-0.26,0.06-0.34,0.21
	c-1.71,3.29-3.43,6.58-5.14,9.88c-1.08,2.05-2.15,4.11-3.23,6.17c-0.02,0.05-0.04,0.11-0.06,0.17h4.79
	c0.41-0.83,0.83-1.67,1.24-2.49h5.58c0.07,0.84,0.13,1.66,0.2,2.48h4.43C65.8,32.89,65.78,32.6,65.75,32.3z M57,27.94
	c1.15-2.31,2.28-4.58,3.41-6.85c0.02,0.01,0.04,0.01,0.05,0.02c0.17,2.26,0.35,4.53,0.52,6.83H57z"/>
<path class="st0" d="M20.9,26.44c0.24-0.42,0.49-0.83,0.73-1.25c1.66-2.86,3.33-5.71,4.99-8.57c0.06-0.1,0.12-0.16,0.25-0.16
	c1.42,0,2.83,0,4.25,0c0.04,0,0.08,0.01,0.14,0.01c-0.04,0.08-0.08,0.15-0.11,0.21c-1.21,2.09-2.43,4.17-3.64,6.26
	c-1.68,2.89-3.37,5.78-5.05,8.67c-0.28,0.48-0.56,0.96-0.84,1.44c-0.06,0.11-0.13,0.15-0.26,0.15c-1.41,0-2.83,0-4.24,0
	c-0.05,0-0.09-0.01-0.15-0.01c-0.05-0.45-0.09-0.89-0.14-1.33c-0.11-1.04-0.21-2.08-0.32-3.12c-0.09-0.86-0.17-1.71-0.25-2.57
	c-0.1-1-0.21-2-0.31-3.01c-0.09-0.85-0.16-1.7-0.25-2.54c-0.05-0.49-0.08-0.98-0.19-1.46c-0.23-0.99-0.83-1.67-1.82-1.96
	c-0.36-0.1-0.73-0.14-1.1-0.21c-0.09-0.02-0.18-0.01-0.29-0.02c0-0.17,0-0.32,0-0.5c2.51,0,5.02,0,7.56,0
	c0.34,3.32,0.67,6.64,1.01,9.96C20.86,26.44,20.88,26.44,20.9,26.44z"/>
<path class="st0" d="M51.84,18.43c-0.87,0.91-1.74,1.82-2.62,2.74c-0.11-0.08-0.21-0.15-0.31-0.22c-0.62-0.43-1.26-0.84-1.98-1.11
	c-0.77-0.29-1.52-0.22-2.26,0.09c-0.51,0.21-0.79,0.62-0.88,1.16c-0.04,0.22,0,0.43,0.13,0.6c0.14,0.18,0.29,0.38,0.47,0.52
	c0.5,0.37,1.02,0.72,1.55,1.06c0.7,0.46,1.41,0.9,2.05,1.44c0.38,0.33,0.73,0.68,1.02,1.09c0.8,1.12,0.95,2.34,0.54,3.63
	c-0.4,1.24-1.16,2.22-2.19,3c-1.22,0.93-2.6,1.41-4.14,1.39c-1.86-0.02-3.67-0.3-5.41-0.98c-0.58-0.23-1.14-0.5-1.67-0.85
	c-0.08-0.05-0.15-0.11-0.25-0.18c0.75-1.08,1.5-2.14,2.25-3.2c0.36,0.23,0.7,0.46,1.04,0.67c0.67,0.4,1.39,0.72,2.15,0.9
	c0.85,0.2,1.69,0.16,2.52-0.11c0.25-0.08,0.49-0.2,0.7-0.37c0.48-0.39,0.59-0.97,0.28-1.51c-0.18-0.31-0.43-0.56-0.71-0.77
	c-0.5-0.36-1.01-0.72-1.52-1.06c-0.71-0.47-1.42-0.94-2.04-1.53c-0.48-0.45-0.88-0.95-1.15-1.55c-0.4-0.91-0.39-1.84-0.12-2.77
	c0.62-2.12,2.04-3.43,4.15-3.99c1.97-0.52,3.9-0.36,5.79,0.39c0.82,0.32,1.59,0.74,2.3,1.24c0.09,0.06,0.18,0.13,0.26,0.2
	C51.81,18.38,51.82,18.4,51.84,18.43z"/>
<path class="st0" d="M32.7,33.21c-1.47,0-2.93,0-4.42,0c1.81-5.59,3.62-11.17,5.43-16.75c1.48,0,2.93,0,4.39,0
	C38.1,16.64,32.96,32.58,32.7,33.21z"/>
<path class="st0" d="M66.33,16.79c-0.51,0-0.91,0.41-0.91,0.93c0,0.5,0.42,0.92,0.93,0.91c0.51,0,0.92-0.42,0.92-0.93
	C67.26,17.19,66.85,16.78,66.33,16.79z M66.82,18.3c-0.1-0.16-0.2-0.32-0.31-0.49c0.03-0.02,0.06-0.04,0.09-0.07
	c0.12-0.08,0.15-0.2,0.11-0.33c-0.03-0.13-0.13-0.19-0.25-0.2c-0.16-0.01-0.31,0-0.49,0v1.06c0.1,0.04,0.15,0.02,0.16-0.09v-0.32
	c0.14-0.06,0.23-0.01,0.29,0.1c0.03,0.04,0.06,0.09,0.08,0.14c0.05,0.12,0.12,0.21,0.28,0.22c-0.36,0.25-0.82,0.17-1.06-0.16
	c-0.23-0.33-0.17-0.8,0.15-1.05c0.31-0.25,0.79-0.21,1.05,0.09C67.2,17.53,67.16,17.99,66.82,18.3z M66.43,17.65
	c-0.09,0.01-0.18,0.01-0.29,0.01v-0.3c0.1,0,0.2-0.01,0.28,0.01c0.06,0.01,0.12,0.08,0.13,0.14C66.57,17.58,66.52,17.65,66.43,17.65
	z"/>
<path class="st0" d="M73.93,45.03c0-0.52,0.4-0.92,0.92-0.92c0.5,0,0.91,0.4,0.92,0.9c0,0.6-0.45,0.94-0.9,0.94
	C74.35,45.96,73.92,45.57,73.93,45.03z"/>
<path class="st1" d="M75.34,45.6c-0.37,0.36-1.1,0.21-1.24-0.42c-0.09-0.4,0.17-0.8,0.59-0.9c0.38-0.1,0.8,0.16,0.9,0.55
	C75.66,45.13,75.58,45.4,75.34,45.6c-0.15-0.05-0.38-0.32-0.38-0.45c0-0.08,0.05-0.1,0.1-0.14c0.08-0.06,0.11-0.15,0.07-0.25
	c-0.04-0.09-0.1-0.14-0.21-0.15c-0.33-0.03-0.37,0-0.36,0.33c0,0.13-0.01,0.26,0,0.4c0.01-0.11,0.04-0.21,0.16-0.24
	c0.12-0.03,0.19,0.04,0.26,0.13c0.06,0.08,0.1,0.18,0.16,0.26C75.18,45.55,75.24,45.61,75.34,45.6z"/>
<path class="st0" d="M75.34,45.6c-0.18,0.03-0.29-0.04-0.36-0.21c-0.05-0.14-0.13-0.28-0.35-0.23c0,0.1,0,0.21,0,0.32
	c0,0.11-0.05,0.14-0.16,0.1c0-0.34,0-0.68,0-1.03c0.18-0.05,0.37-0.04,0.55-0.01c0.2,0.04,0.28,0.3,0.14,0.46
	c-0.04,0.05-0.11,0.08-0.15,0.12c0.08,0.14,0.17,0.28,0.25,0.41C75.28,45.57,75.31,45.58,75.34,45.6
	C75.34,45.6,75.34,45.6,75.34,45.6z"/>
<path class="st1" d="M74.65,44.67c0.1,0.01,0.2,0,0.28,0.02c0.05,0.02,0.1,0.09,0.11,0.15c0.01,0.07-0.04,0.13-0.12,0.14
	c-0.08,0.01-0.17,0.01-0.27,0.02C74.65,44.89,74.65,44.8,74.65,44.67z"/>
</svg>
